<svg width="13" height="14" viewBox="0 0 13 14" fill="none" xmlns="http://www.w3.org/2000/svg">
<path id="check_circle" d="M5.32178 10.1188L9.68441 5.23267L8.81807 4.26238L5.32178 8.17822L3.55817 6.20297L2.69183 7.17327L5.32178 10.1188ZM6.18812 13.8614C5.3321 13.8614 4.52764 13.6795 3.77475 13.3156C3.02186 12.9517 2.36696 12.4579 1.81002 11.8342C1.25309 11.2104 0.812191 10.4769 0.487314 9.63366C0.162438 8.79043 0 7.88944 0 6.93069C0 5.97195 0.162438 5.07096 0.487314 4.22772C0.812191 3.38449 1.25309 2.65099 1.81002 2.02723C2.36696 1.40347 3.02186 0.909654 3.77475 0.545792C4.52764 0.181931 5.3321 0 6.18812 0C7.04414 0 7.8486 0.181931 8.60149 0.545792C9.35437 0.909654 10.0093 1.40347 10.5662 2.02723C11.1231 2.65099 11.564 3.38449 11.8889 4.22772C12.2138 5.07096 12.3762 5.97195 12.3762 6.93069C12.3762 7.88944 12.2138 8.79043 11.8889 9.63366C11.564 10.4769 11.1231 11.2104 10.5662 11.8342C10.0093 12.4579 9.35437 12.9517 8.60149 13.3156C7.8486 13.6795 7.04414 13.8614 6.18812 13.8614Z" fill="#00AB48"/>
</svg>
