<svg width="20" height="20" viewBox="0 0 20 20" fill="none" xmlns="http://www.w3.org/2000/svg">
<path id="Vector" d="M17 3.52745C16.0832 2.67167 14.9912 1.99315 13.7876 1.53146C12.5841 1.06977 11.2931 0.834147 9.99 0.838342C4.53 0.838342 0.0800002 4.95055 0.0800002 9.9961C0.0800002 11.6133 0.54 13.1842 1.4 14.5704L0 19.3202L5.25 18.0449C6.7 18.775 8.33 19.1631 9.99 19.1631C15.45 19.1631 19.9 15.0509 19.9 10.0053C19.9 7.55649 18.87 5.2555 17 3.52745ZM9.99 17.6106C8.51 17.6106 7.06 17.241 5.79 16.5479L5.49 16.3816L2.37 17.1393L3.2 14.3301L3 14.0436C2.17775 12.8303 1.74114 11.4277 1.74 9.9961C1.74 5.80072 5.44 2.38158 9.98 2.38158C12.18 2.38158 14.25 3.1763 15.8 4.61788C16.5675 5.32385 17.1757 6.16357 17.5894 7.08837C18.0031 8.01317 18.214 9.00465 18.21 10.0053C18.23 14.2007 14.53 17.6106 9.99 17.6106ZM14.51 11.9182C14.26 11.8073 13.04 11.2529 12.82 11.1697C12.59 11.0958 12.43 11.0588 12.26 11.2806C12.09 11.5116 11.62 12.0291 11.48 12.177C11.34 12.3341 11.19 12.3525 10.94 12.2324C10.69 12.1215 9.89 11.872 8.95 11.0958C8.21 10.4859 7.72 9.73735 7.57 9.50633C7.43 9.27531 7.55 9.15517 7.68 9.03504C7.79 8.93339 7.93 8.76705 8.05 8.63768C8.17 8.50831 8.22 8.40666 8.3 8.2588C8.38 8.10171 8.34 7.97234 8.28 7.86145C8.22 7.75055 7.72 6.62316 7.52 6.16111C7.32 5.71755 7.11 5.773 6.96 5.76375H6.48C6.31 5.76375 6.05 5.8192 5.82 6.05022C5.6 6.28125 4.96 6.8357 4.96 7.96309C4.96 9.09049 5.85 10.1809 5.97 10.3288C6.09 10.4859 7.72 12.7961 10.2 13.7849C10.79 14.0251 11.25 14.1638 11.61 14.2654C12.2 14.441 12.74 14.4133 13.17 14.3578C13.65 14.2931 14.64 13.8034 14.84 13.2674C15.05 12.7314 15.05 12.2786 14.98 12.177C14.91 12.0753 14.76 12.0291 14.51 11.9182Z" fill="white"/>
</svg>
