<svg width="24" height="16" viewBox="0 0 24 16" fill="none" xmlns="http://www.w3.org/2000/svg">
<path id="Vector" d="M23.498 2.75736C23.3624 2.2854 23.095 1.85465 22.7226 1.50823C22.3502 1.16181 21.8858 0.911895 21.376 0.7835C19.505 0.316834 12 0.316833 12 0.316833C12 0.316833 4.495 0.316834 2.623 0.7835C2.11341 0.912121 1.64929 1.16213 1.27708 1.50853C0.904861 1.85492 0.637591 2.28556 0.502 2.75736C0 4.49835 0 8.13004 0 8.13004C0 8.13004 0 11.7617 0.502 13.5027C0.637586 13.9747 0.904975 14.4054 1.27739 14.7518C1.64981 15.0983 2.11418 15.3482 2.624 15.4766C4.495 15.9432 12 15.9432 12 15.9432C12 15.9432 19.505 15.9432 21.377 15.4766C21.8869 15.3483 22.3513 15.0984 22.7237 14.7519C23.0961 14.4055 23.3635 13.9747 23.499 13.5027C24 11.7617 24 8.13004 24 8.13004C24 8.13004 24 4.49835 23.498 2.75736ZM9.545 11.4272V4.83287L15.818 8.13004L9.545 11.4272Z" fill="white"/>
</svg>
